<svg xmlns="http://www.w3.org/2000/svg" xmlns:xlink="http://www.w3.org/1999/xlink" width="" zoomAndPan="magnify" viewBox="0 0 375 97.5" height="" preserveAspectRatio="xMidYMid meet" version="1.0"><defs><g/><clipPath id="id1"><path d="M 0.957031 10 L 79.644531 10 L 79.644531 88.792969 L 0.957031 88.792969 Z M 0.957031 10 " clip-rule="nonzero"/></clipPath></defs><g clip-path="url(#id1)"><path fill="#2584ff" d="M 60.695312 63.589844 L 60.695312 45.859375 C 65.261719 46.757812 69.167969 50.09375 71.40625 54.726562 C 69.167969 59.359375 65.261719 62.695312 60.695312 63.589844 Z M 55.753906 63.589844 C 51.171875 62.695312 47.28125 59.359375 45.042969 54.726562 C 47.28125 50.09375 51.171875 46.757812 55.753906 45.859375 Z M 24.445312 63.589844 L 24.445312 45.859375 C 29.007812 46.757812 32.914062 50.09375 35.15625 54.726562 C 32.914062 59.359375 29.007812 62.695312 24.445312 63.589844 Z M 19.5 63.589844 C 14.921875 62.695312 11.03125 59.359375 8.789062 54.726562 C 11.03125 50.09375 14.921875 46.757812 19.5 45.859375 Z M 61.585938 10.710938 C 60.617188 9.742188 59.050781 9.8125 58.089844 10.785156 C 53.78125 15.121094 50.085938 20.339844 47.183594 26.1875 C 44.878906 25.855469 42.503906 25.671875 40.097656 25.671875 C 37.675781 25.671875 35.304688 25.855469 32.996094 26.1875 C 30.09375 20.339844 26.402344 15.125 22.109375 10.789062 C 21.144531 9.816406 19.578125 9.742188 18.609375 10.710938 C 7.59375 21.742188 0.550781 38.449219 0.550781 57.214844 C 0.550781 74.648438 18.25 88.761719 40.097656 88.761719 C 61.933594 88.761719 79.644531 74.648438 79.644531 57.214844 C 79.644531 38.449219 72.589844 21.742188 61.585938 10.710938 " fill-opacity="1" fill-rule="nonzero"/></g><g fill="#ffffff" fill-opacity="1"><g transform="translate(91.078791, 74.734466)"><g><path d="M 45.078125 -24.546875 C 45.078125 -16.691406 42.910156 -10.632812 38.578125 -6.375 C 34.253906 -2.125 28.171875 0 20.328125 0 L 5.09375 0 L 5.09375 -47.109375 L 21.390625 -47.109375 C 28.953125 -47.109375 34.789062 -45.171875 38.90625 -41.296875 C 43.019531 -37.429688 45.078125 -31.847656 45.078125 -24.546875 Z M 31.859375 -24.09375 C 31.859375 -28.414062 31.003906 -31.617188 29.296875 -33.703125 C 27.585938 -35.785156 24.992188 -36.828125 21.515625 -36.828125 L 17.8125 -36.828125 L 17.8125 -10.4375 L 20.65625 -10.4375 C 24.519531 -10.4375 27.351562 -11.554688 29.15625 -13.796875 C 30.957031 -16.046875 31.859375 -19.476562 31.859375 -24.09375 Z M 31.859375 -24.09375 "/></g></g></g><g fill="#ffffff" fill-opacity="1"><g transform="translate(139.499214, 74.734466)"><g><path d="M 45.140625 -47.109375 L 45.140625 -18.75 C 45.140625 -12.582031 43.394531 -7.804688 39.90625 -4.421875 C 36.414062 -1.046875 31.382812 0.640625 24.8125 0.640625 C 18.382812 0.640625 13.445312 -1 10 -4.28125 C 6.550781 -7.570312 4.828125 -12.300781 4.828125 -18.46875 L 4.828125 -47.109375 L 17.625 -47.109375 L 17.625 -19.453125 C 17.625 -16.128906 18.242188 -13.710938 19.484375 -12.203125 C 20.734375 -10.703125 22.570312 -9.953125 25 -9.953125 C 27.601562 -9.953125 29.488281 -10.695312 30.65625 -12.1875 C 31.820312 -13.6875 32.40625 -16.132812 32.40625 -19.53125 L 32.40625 -47.109375 Z M 45.140625 -47.109375 "/></g></g></g><g fill="#ffffff" fill-opacity="1"><g transform="translate(189.433777, 74.734466)"><g><path d="M 35.890625 -14.3125 C 35.890625 -11.382812 35.148438 -8.785156 33.671875 -6.515625 C 32.191406 -4.253906 30.050781 -2.492188 27.25 -1.234375 C 24.457031 0.015625 21.1875 0.640625 17.4375 0.640625 C 14.289062 0.640625 11.65625 0.421875 9.53125 -0.015625 C 7.40625 -0.453125 5.195312 -1.21875 2.90625 -2.3125 L 2.90625 -13.65625 C 5.332031 -12.414062 7.851562 -11.445312 10.46875 -10.75 C 13.09375 -10.050781 15.5 -9.703125 17.6875 -9.703125 C 19.582031 -9.703125 20.96875 -10.023438 21.84375 -10.671875 C 22.726562 -11.328125 23.171875 -12.171875 23.171875 -13.203125 C 23.171875 -13.847656 22.992188 -14.410156 22.640625 -14.890625 C 22.285156 -15.378906 21.710938 -15.867188 20.921875 -16.359375 C 20.140625 -16.859375 18.050781 -17.867188 14.65625 -19.390625 C 11.582031 -20.785156 9.273438 -22.140625 7.734375 -23.453125 C 6.203125 -24.765625 5.066406 -26.269531 4.328125 -27.96875 C 3.585938 -29.664062 3.21875 -31.671875 3.21875 -33.984375 C 3.21875 -38.328125 4.796875 -41.710938 7.953125 -44.140625 C 11.109375 -46.566406 15.445312 -47.78125 20.96875 -47.78125 C 25.84375 -47.78125 30.816406 -46.648438 35.890625 -44.390625 L 32 -34.578125 C 27.59375 -36.585938 23.789062 -37.59375 20.59375 -37.59375 C 18.9375 -37.59375 17.734375 -37.300781 16.984375 -36.71875 C 16.234375 -36.144531 15.859375 -35.429688 15.859375 -34.578125 C 15.859375 -33.648438 16.332031 -32.820312 17.28125 -32.09375 C 18.238281 -31.363281 20.832031 -30.03125 25.0625 -28.09375 C 29.125 -26.269531 31.941406 -24.3125 33.515625 -22.21875 C 35.097656 -20.125 35.890625 -17.488281 35.890625 -14.3125 Z M 35.890625 -14.3125 "/></g></g></g><g fill="#ffffff" fill-opacity="1"><g transform="translate(227.512908, 74.734466)"><g><path d="M 25.875 0 L 13.140625 0 L 13.140625 -36.703125 L 1.640625 -36.703125 L 1.640625 -47.109375 L 37.34375 -47.109375 L 37.34375 -36.703125 L 25.875 -36.703125 Z M 25.875 0 "/></g></g></g><g fill="#ffffff" fill-opacity="1"><g transform="translate(266.494083, 74.734466)"><g><path d="M 5.09375 0 L 5.09375 -47.109375 L 17.875 -47.109375 L 17.875 0 Z M 5.09375 0 "/></g></g></g><g fill="#ffffff" fill-opacity="1"><g transform="translate(289.463988, 74.734466)"><g><path d="M 17.625 0 L 5.09375 0 L 5.09375 -47.109375 L 32.921875 -47.109375 L 32.921875 -36.890625 L 17.625 -36.890625 L 17.625 -27.90625 L 31.734375 -27.90625 L 31.734375 -17.6875 L 17.625 -17.6875 Z M 17.625 0 "/></g></g></g><g fill="#ffffff" fill-opacity="1"><g transform="translate(325.030283, 74.734466)"><g><path d="M 21.90625 -29.640625 L 30.03125 -47.109375 L 43.8125 -47.109375 L 28.328125 -18.390625 L 28.328125 0 L 15.5 0 L 15.5 -18.015625 L 0 -47.109375 L 13.859375 -47.109375 Z M 21.90625 -29.640625 "/></g></g></g></svg>