<svg xmlns="http://www.w3.org/2000/svg" xmlns:xlink="http://www.w3.org/1999/xlink" zoomAndPan="magnify" viewBox="0 0 594.95996 842.24997" preserveAspectRatio="xMidYMid meet" version="1.0"><defs><g/><clipPath id="id1"><path d="M 149.042969 692 L 445.527344 692 L 445.527344 840.792969 L 149.042969 840.792969 Z M 149.042969 692 " clip-rule="nonzero"/></clipPath><clipPath id="id2"><path d="M 149.042969 0 L 445.527344 0 L 445.527344 790 L 149.042969 790 Z M 149.042969 0 " clip-rule="nonzero"/></clipPath></defs><g clip-path="url(#id1)"><path fill="#1b0760" d="M 445.527344 789.492188 L 445.527344 840.792969 L 297.285156 743.957031 L 149.042969 840.792969 L 149.042969 789.492188 L 297.285156 692.65625 L 445.527344 789.492188 " fill-opacity="1" fill-rule="nonzero"/></g><g clip-path="url(#id2)"><path fill="#1b0760" d="M 445.527344 0.00390625 L 445.527344 789.492188 L 297.285156 692.65625 L 149.042969 789.492188 L 149.042969 0.00390625 L 445.527344 0.00390625 " fill-opacity="1" fill-rule="nonzero"/></g><g fill="#ffffff" fill-opacity="1"><g transform="translate(238.213325, 37.358423)"><g><path d="M 109.410156 69.796875 C 110.046875 64.207031 110.207031 59.894531 110.207031 53.347656 L 110.207031 13.578125 L 0 13.578125 L 0 38.652344 L 40.25 38.652344 L 40.25 53.347656 C 40.25 59.894531 40.410156 64.207031 41.046875 69.796875 C 42.964844 85.769531 54.304688 99.824219 75.230469 99.824219 C 96.152344 99.824219 107.492188 86.25 109.410156 69.796875 Z M 60.214844 61.171875 C 59.894531 58.9375 59.894531 55.902344 59.894531 52.386719 L 59.894531 38.652344 L 90.5625 38.652344 L 90.5625 52.386719 C 90.5625 55.902344 90.5625 58.9375 90.242188 61.171875 C 89.285156 68.679688 84.652344 73.632812 75.230469 73.632812 C 65.804688 73.632812 61.171875 68.679688 60.214844 61.171875 Z M 60.214844 61.171875 "/></g></g></g><g fill="#ffffff" fill-opacity="1"><g transform="translate(238.213325, 138.460868)"><g><path d="M 87.367188 49.035156 C 87.367188 20.765625 69.160156 4.152344 42.644531 4.152344 C 16.132812 4.152344 -2.234375 20.765625 -2.234375 49.035156 C -2.234375 77.144531 16.132812 93.914062 42.644531 93.914062 C 69.160156 93.914062 87.367188 77.144531 87.367188 49.035156 Z M 15.015625 49.035156 C 15.015625 37.054688 24.917969 29.867188 42.644531 29.867188 C 60.375 29.867188 70.117188 37.054688 70.117188 49.035156 C 70.117188 60.855469 60.375 68.042969 42.644531 68.042969 C 24.917969 68.042969 15.015625 60.855469 15.015625 49.035156 Z M 15.015625 49.035156 "/></g></g></g><g fill="#ffffff" fill-opacity="1"><g transform="translate(238.213325, 236.368917)"><g><path d="M 87.367188 62.769531 C 87.367188 54.144531 85.449219 45.679688 81.777344 40.886719 L 72.355469 34.5 L 85.132812 34.5 L 85.132812 9.421875 L -31.304688 9.421875 L -31.304688 34.5 L 11.179688 34.5 L 2.234375 40.089844 C -0.480469 44.402344 -2.234375 52.867188 -2.234375 59.894531 C -2.234375 81.777344 13.734375 100.464844 44.402344 100.464844 C 69.480469 100.464844 87.367188 86.25 87.367188 62.769531 Z M 15.015625 53.984375 C 15.015625 44.402344 21.402344 34.5 39.769531 34.5 L 43.605469 34.5 C 63.089844 34.5 70.117188 43.285156 70.117188 54.785156 C 70.117188 66.605469 59.574219 74.75 42.804688 74.75 C 24.277344 74.75 15.015625 66.125 15.015625 53.984375 Z M 15.015625 53.984375 "/></g></g></g><g fill="#ffffff" fill-opacity="1"><g transform="translate(238.213325, 340.985194)"><g><path d="M 85.132812 90.722656 L 85.132812 65.804688 L 39.609375 65.804688 C 23.957031 65.804688 15.171875 59.097656 15.171875 48.875 C 15.171875 39.132812 20.285156 34.660156 28.910156 33.542969 C 33.222656 33.0625 37.855469 32.902344 40.570312 32.902344 L 85.132812 32.902344 L 85.132812 7.984375 L 35.136719 7.984375 C 28.269531 7.984375 23.640625 8.144531 19.328125 8.785156 C 7.667969 10.703125 -2.234375 21.242188 -2.234375 38.8125 C -2.234375 46.796875 -0.640625 52.867188 3.195312 58.617188 L 14.535156 65.804688 L 0 65.804688 L 0 90.722656 Z M 85.132812 90.722656 "/></g></g></g><g fill="#ffffff" fill-opacity="1"><g transform="translate(238.213325, 441.289069)"><g><path d="M 117.394531 33.859375 L 117.394531 8.785156 L 28.589844 8.785156 C 22.679688 8.785156 18.527344 8.785156 14.375 9.105469 C 3.195312 9.742188 -1.4375 16.769531 -1.4375 28.75 C -1.4375 34.339844 -1.117188 38.972656 -0.640625 43.761719 L 16.453125 43.761719 C 16.132812 36.257812 17.410156 34.5 21.242188 34.019531 C 23.480469 33.859375 25.394531 33.859375 29.070312 33.859375 Z M 117.394531 33.859375 "/></g></g></g><g fill="#ffffff" fill-opacity="1"><g transform="translate(238.213325, 487.767452)"><g><path d="M 0 59.097656 L 0 83.535156 C 9.421875 82.257812 15.171875 81.9375 21.5625 81.9375 L 47.4375 81.9375 C 52.386719 81.9375 57.179688 81.777344 61.171875 81.457031 C 76.347656 80.179688 87.367188 71.074219 87.367188 45.839844 C 87.367188 25.078125 76.347656 8.625 56.859375 8.144531 L 56.859375 32.105469 C 65.324219 32.742188 70.117188 37.054688 70.117188 44.882812 C 70.117188 52.386719 65.964844 56.222656 60.855469 56.699219 C 57.980469 57.019531 55.742188 57.019531 53.507812 57.019531 L 52.070312 57.019531 L 52.070312 51.589844 C 52.070312 21.5625 41.207031 5.109375 22.679688 5.109375 C 6.546875 5.109375 -2.234375 18.046875 -2.234375 32.421875 C -2.234375 40.25 -0.480469 47.4375 3.355469 53.507812 L 12.457031 57.339844 Z M 15.015625 42.324219 C 15.015625 35.457031 18.367188 30.824219 24.757812 30.824219 C 34.660156 30.824219 38.492188 41.527344 37.214844 57.019531 L 30.984375 57.019531 C 20.445312 57.019531 15.015625 49.832031 15.015625 42.324219 Z M 15.015625 42.324219 "/></g></g></g><g fill="#ffffff" fill-opacity="1"><g transform="translate(238.213325, 579.286719)"><g><path d="M 87.367188 56.382812 C 87.367188 51.429688 85.132812 45.199219 80.660156 40.886719 L 68.839844 34.5 L 85.132812 34.5 L 85.132812 9.421875 L 0 9.421875 L 0 34.5 L 35.617188 34.5 C 59.734375 34.5 67.722656 42.964844 66.445312 62.769531 L 86.726562 62.769531 C 87.046875 60.855469 87.367188 59.097656 87.367188 56.382812 Z M 87.367188 56.382812 "/></g></g></g></svg>